<?xml version="1.0" standalone="no"?>
<!DOCTYPE svg PUBLIC "-//W3C//DTD SVG 20010904//EN"
 "http://www.w3.org/TR/2001/REC-SVG-20010904/DTD/svg10.dtd">
<svg version="1.0" xmlns="http://www.w3.org/2000/svg"
 width="1000.000000pt" height="1000.000000pt" viewBox="0 0 1000.000000 1000.000000"
 preserveAspectRatio="xMidYMid meet">
<metadata>
Created by potrace 1.11, written by Peter Selinger 2001-2013
</metadata>
<g transform="translate(0.000000,1000.000000) scale(0.100000,-0.100000)"
fill="#000000" stroke="none">
<path d="M2449 8996 c-2 -2 -38 -6 -79 -10 -329 -28 -752 -159 -1015 -316 -27
-16 -63 -37 -80 -46 -56 -31 -210 -137 -280 -193 -360 -287 -645 -669 -808
-1081 -59 -149 -131 -401 -143 -495 0 -5 -4 -26 -7 -45 -32 -170 -43 -496 -25
-696 8 -86 49 -326 64 -376 3 -9 7 -27 9 -39 3 -12 19 -68 36 -123 118 -382
331 -753 594 -1034 126 -135 3187 -3191 3240 -3234 86 -71 83 -69 160 -115
112 -67 282 -138 380 -158 290 -59 555 -42 795 52 116 45 279 134 321 175 8 8
30 25 49 38 19 13 40 30 45 37 6 7 43 22 84 34 96 26 208 78 296 137 52 34
497 473 1685 1662 889 888 1645 1649 1681 1690 138 161 268 369 366 590 52
116 129 377 148 500 4 25 9 54 11 65 13 62 19 181 19 345 0 243 -9 330 -56
530 -149 632 -564 1177 -1137 1493 -45 25 -85 46 -87 46 -3 0 -18 7 -33 15
-15 8 -56 26 -91 40 -35 14 -105 53 -157 86 -51 33 -97 60 -102 60 -6 0 -12 4
-14 8 -11 28 -411 205 -538 238 -188 49 -251 64 -279 69 -19 3 -43 7 -55 10
-21 4 -32 6 -151 22 -121 16 -560 8 -661 -11 -12 -3 -39 -7 -60 -10 -88 -14
-114 -19 -225 -47 -359 -89 -700 -254 -999 -483 -89 -68 -133 -108 -288 -258
-72 -70 -136 -128 -140 -128 -5 0 -21 14 -38 31 -32 34 -159 135 -239 191
-126 87 -266 162 -440 237 -27 12 -90 48 -140 80 -164 106 -374 208 -580 280
-107 38 -331 93 -425 106 -24 3 -80 11 -145 21 -37 6 -461 14 -466 10z m-500
-790 c-2 -2 -44 -37 -94 -78 -320 -266 -556 -606 -692 -998 -41 -116 -87 -297
-97 -380 -3 -25 -8 -55 -10 -67 -9 -46 -20 -212 -20 -313 0 -145 10 -260 35
-400 76 -440 277 -856 573 -1185 20 -22 728 -732 1574 -1578 1477 -1478 1535
-1538 1497 -1533 -22 2 -40 5 -40 6 0 1 -11 3 -25 6 -40 7 -130 45 -195 83
-47 27 -399 374 -1671 1645 -1099 1100 -1633 1641 -1682 1704 -74 96 -161 231
-201 312 -12 25 -26 52 -31 60 -45 74 -123 306 -156 461 -29 142 -31 157 -40
289 -13 203 -5 331 33 520 50 248 137 465 270 670 221 341 516 583 933 768 25
10 47 16 39 8z m4297 -51 c-83 -63 -108 -86 -397 -372 -157 -156 -290 -284
-297 -284 -30 -3 -39 -3 -67 3 -17 4 -43 18 -59 33 l-27 25 118 118 c224 224
407 354 662 468 53 24 100 44 104 44 5 0 -12 -16 -37 -35z"/>
</g>
</svg>
