<svg xmlns="http://www.w3.org/2000/svg" xmlns:xlink="http://www.w3.org/1999/xlink" viewBox="0 0 163.82 90.89"><defs><style>.cls-1{isolation:isolate;}.cls-2{fill:#004853;}.cls-3,.cls-4{mix-blend-mode:multiply;}.cls-3{opacity:0.5;fill:url(#linear-gradient);}.cls-4{opacity:0.7;fill:url(#linear-gradient-2);}.cls-5{fill:#00b8bc;}.cls-6{fill:#fff;}</style><linearGradient id="linear-gradient" x1="31.12" y1="40.77" x2="21.13" y2="59.55" gradientUnits="userSpaceOnUse"><stop offset="0" stop-color="#004859"/><stop offset="0.11" stop-color="#37707d"/><stop offset="0.23" stop-color="#739ba4"/><stop offset="0.36" stop-color="#a5bfc4"/><stop offset="0.47" stop-color="#ccdade"/><stop offset="0.58" stop-color="#e8eff0"/><stop offset="0.67" stop-color="#f9fbfb"/><stop offset="0.74" stop-color="#fff"/></linearGradient><linearGradient id="linear-gradient-2" x1="148.94" y1="40.34" x2="163.82" y2="40.34" xlink:href="#linear-gradient"/></defs><g class="cls-1"><g id="Layer_2" data-name="Layer 2"><g id="_1" data-name=" 1"><polygon class="cls-2" points="114.94 80.79 15.59 83.42 1.9 31.94 38.61 30.23 64.41 0 163.82 15.95 150.25 67.73 114.94 80.79"/><polygon class="cls-3" points="42.73 25.41 38.61 30.23 1.9 31.94 15.59 83.42 42.73 82.7 42.73 25.41"/><polygon class="cls-4" points="148.94 67.11 150.42 67.11 163.82 15.95 148.94 13.56 148.94 67.11"/><polygon class="cls-5" points="149.51 90.89 15.59 83.42 9.55 15.01 152.33 2.67 149.51 90.89"/><polygon class="cls-5" points="150.44 66.53 122.07 67.86 123.12 88.47 148.73 90.86 150.44 66.53"/><polygon class="cls-5" points="1.9 31.94 33.38 31.86 32.73 8 0 10.39 1.9 31.94"/><path class="cls-6" d="M16.94,22.89c-2.6-1.75.71-4.95.67-5.55,0-.28-1.34-1.11-1.57-1.1-1,.07-6.82,6.84-2.8,11.43C16.62,31.52,22,26.25,16.94,22.89Z"/><path class="cls-6" d="M25,22.35c-2.6-1.75.7-5,.66-5.55,0-.28-1.34-1.11-1.57-1.1-.95.07-6.81,6.84-2.79,11.43C24.71,31,30,25.71,25,22.35Z"/><path class="cls-6" d="M142.68,67.57c-4.19-5.43-11.74,1.17-5.34,6.07C140.67,76.2,136,80.2,136,81c0,.37,1.7,1.6,2,1.6C139.28,82.59,147.66,74,142.68,67.57Z"/><path class="cls-6" d="M126.49,73.69c3.34,2.56-1.35,6.55-1.34,7.36,0,.37,1.7,1.59,2,1.59,1.28,0,9.67-8.56,4.68-15C127.65,62.19,120.09,68.78,126.49,73.69Z"/></g></g></g></svg>