<svg xmlns="http://www.w3.org/2000/svg" xmlns:xlink="http://www.w3.org/1999/xlink" viewBox="0 0 162.88 89.55"><defs><style>.cls-1{isolation:isolate;}.cls-2{fill:#004853;}.cls-3{fill:#00b8bc;}.cls-4{mix-blend-mode:multiply;fill:url(#linear-gradient);}.cls-5{fill:#fff;}</style><linearGradient id="linear-gradient" x1="138.88" y1="33.37" x2="151.18" y2="29.85" gradientUnits="userSpaceOnUse"><stop offset="0" stop-color="#134575"/><stop offset="0.03" stop-color="#1e4e7b"/><stop offset="0.23" stop-color="#6d8caa"/><stop offset="0.41" stop-color="#acbdce"/><stop offset="0.56" stop-color="#d9e1e9"/><stop offset="0.67" stop-color="#f5f7f9"/><stop offset="0.74" stop-color="#fff"/></linearGradient></defs><g class="cls-1"><g id="Layer_2" data-name="Layer 2"><g id="_1" data-name=" 1"><polygon class="cls-2" points="143 62.45 13.38 80.79 25.31 16.6 162.88 10.91 143 62.45"/><polygon class="cls-3" points="138.45 10.7 150.79 68.08 144.23 87.22 39.95 89.55 0 0 138.45 10.7"/><polygon class="cls-4" points="138.86 11.96 147.66 52.28 162.88 10.91 138.86 11.96"/><path class="cls-5" d="M140.12,67.25c-3.32-5-10.26.34-5,5,2.75,2.41-1.55,5.6-1.59,6.3,0,.33,1.38,1.49,1.65,1.5C136.3,80.09,144.07,73.15,140.12,67.25Z"/><path class="cls-5" d="M125.72,71.63c2.75,2.41-1.55,5.61-1.59,6.31,0,.32,1.38,1.48,1.64,1.5,1.11.07,8.89-6.88,4.93-12.78C127.38,61.72,120.45,67,125.72,71.63Z"/><path class="cls-5" d="M20.49,25.12c-2.67-2.07,1.11-5.26,1.11-5.91,0-.3-1.36-1.28-1.61-1.28-1,0-7.79,6.84-3.8,12.05C19.53,34.35,25.62,29.08,20.49,25.12Z"/><path class="cls-5" d="M29.2,25.12c-2.67-2.07,1.11-5.26,1.11-5.91,0-.3-1.36-1.28-1.61-1.28-1,0-7.79,6.84-3.81,12.05C28.23,34.35,34.32,29.08,29.2,25.12Z"/></g></g></g></svg>