<svg xmlns="http://www.w3.org/2000/svg" xmlns:xlink="http://www.w3.org/1999/xlink" viewBox="0 0 182.05 92.31"><defs><style>.cls-1{isolation:isolate;}.cls-2{fill:#57c7ec;}.cls-3{fill:#f9a753;}.cls-4{mix-blend-mode:multiply;fill:url(#linear-gradient);}.cls-5{fill:#dbd612;}.cls-6{fill:#fff;}</style><linearGradient id="linear-gradient" x1="157.12" y1="51.18" x2="182.05" y2="51.18" gradientUnits="userSpaceOnUse"><stop offset="0" stop-color="#250043"/><stop offset="0.24" stop-color="#745c87"/><stop offset="0.49" stop-color="#beb3c7"/><stop offset="0.66" stop-color="#edeaef"/><stop offset="0.74" stop-color="#fff"/></linearGradient></defs><g class="cls-1"><g id="Layer_2" data-name="Layer 2"><g id="_1" data-name=" 1"><polygon class="cls-2" points="172.03 92.03 170.62 72.37 182.05 16.92 0 11.15 11.53 92.06 172.03 92.03"/><polygon class="cls-3" points="157.12 16.13 168.12 86.23 171.09 78.95 170.62 72.37 182.05 16.92 157.12 16.13"/><polygon class="cls-4" points="157.12 16.13 168.12 86.23 171.09 78.95 170.62 72.37 182.05 16.92 157.12 16.13"/><polygon class="cls-5" points="7.16 16.18 5.55 92.06 172.03 92.03 165.95 0 7.16 16.18"/><path class="cls-6" d="M12.43,32.34C9.12,29.78,13.8,25.83,13.8,25c0-.37-1.68-1.59-2-1.59-1.27,0-9.66,8.48-4.72,14.94C11.24,43.79,18.79,37.25,12.43,32.34Z"/><path class="cls-6" d="M23.23,32.34C19.92,29.78,24.6,25.83,24.6,25c0-.37-1.68-1.59-2-1.59-1.27,0-9.66,8.48-4.72,14.94C22,43.79,29.59,37.25,23.23,32.34Z"/><path class="cls-6" d="M161.69,84c3.1,2.39-1.28,6.09-1.28,6.84,0,.34,1.58,1.49,1.86,1.49,1.19,0,9-7.93,4.41-14C162.81,73.29,155.76,79.39,161.69,84Z"/><path class="cls-6" d="M151.61,84c3.09,2.39-1.28,6.09-1.28,6.84,0,.34,1.57,1.49,1.86,1.49,1.18,0,9-7.93,4.4-14C152.73,73.29,145.67,79.39,151.61,84Z"/></g></g></g></svg>