<svg xmlns="http://www.w3.org/2000/svg" viewBox="0 0 177 82.38"><defs><style>.cls-1{fill:#ffc61a;}.cls-2{fill:#00b8bc;}.cls-3{fill:#fff;}</style></defs><g id="Layer_2" data-name="Layer 2"><g id="_1" data-name=" 1"><ellipse class="cls-1" cx="87.71" cy="35.97" rx="60.06" ry="35.97"/><path class="cls-2" d="M168.72,80.23a9.15,9.15,0,0,0,8.19-10.42l-1.41-9.68a6.6,6.6,0,0,0-6.38-5.62l-8.87-.2L157.4,31.22a16,16,0,0,0-15.48-14L21.24,14.29a3.55,3.55,0,0,0-3.61,3.11l-.4,3.21-11-.31A5.27,5.27,0,0,0,.84,25L.06,32.31a9.77,9.77,0,0,0,10.17,10.8l4.22-.19L11.81,64.07A13.64,13.64,0,0,0,25.89,79.38l115.85-4.65.13,3.8a4,4,0,0,0,4.35,3.83Z"/><path class="cls-3" d="M166.72,62.09c-3.34-5-10.31.34-5,5,2.76,2.42-1.56,5.64-1.6,6.34,0,.33,1.39,1.49,1.66,1.51C162.88,75,170.69,68,166.72,62.09Z"/><path class="cls-3" d="M152.25,66.49c2.76,2.42-1.56,5.64-1.6,6.34,0,.33,1.38,1.49,1.65,1.51,1.12.07,8.93-6.91,4.95-12.84C153.92,56.53,147,61.84,152.25,66.49Z"/><path class="cls-3" d="M11.25,30.57c-2.64-2,1.1-5.21,1.1-5.85,0-.3-1.35-1.28-1.59-1.28-1,0-7.73,6.79-3.78,12C10.3,39.72,16.33,34.5,11.25,30.57Z"/><path class="cls-3" d="M19.89,30.57c-2.65-2,1.09-5.21,1.09-5.85,0-.3-1.34-1.28-1.59-1.28-1,0-7.72,6.79-3.77,12C18.93,39.72,25,34.5,19.89,30.57Z"/></g></g></svg>